<svg version="1.1" id="tomato" xmlns="http://www.w3.org/2000/svg" x="0" y="0" viewBox="0 0 429.1 500" xml:space="preserve"><style>.st0{opacity:.4;fill:#d6d8e5;enable-background:new}.st1{fill:#efda86}.st2{fill:#d1b66b}.st3{fill:#e2c979}.st4{opacity:.1;enable-background:new}.st5{fill:#b1b4c4}.st6{fill:#616e84}.st7{fill:#1d3557}.st9{fill:#2b303f}.st10{opacity:.1;fill:#fff;enable-background:new}.st11{fill:#757b89}.st12{fill:#e9eaf2}.st13{fill:#e26161}.st14{fill:#f4f5f9}.st15{fill:#368b4c}.st16{fill:#3fa45a}.st17{fill:#4cba68}.st18{fill:#64c37d}.st22{fill:#c65555}.st23{fill:#ff6c6c}.st24{fill:#dd6262}.st25{fill:#20232d}.st26{fill:#ffcea9}.st27{fill:#ededed}.st28{fill:#2b2a30}.st29{fill:#f39ba2}.st32{fill:#d9dae2}.st33{fill:#eff0f9}.st35{fill:#8ecc3e}.st42{fill:#d87012}.st45{fill:#7c993c}.st48{opacity:.8}.st49{fill:#e9e9e9}</style><g id="Слой_2"><g id="Слой_1-2"><path class="st0" d="M167.6 279.3l-34.7-19.9 37.2-21.4 34.6 19.9z"/><path class="st1" d="M171.4 234.6l-37.1-21.4 37.1-21.4 37.2 21.4z"/><path class="st2" d="M206.1 257l-34.7 20v-40l34.7-19.9z"/><path class="st3" d="M171.4 277l-34.6-20v-39.9l34.6 19.9z"/><path class="st4" d="M136.8 217.1v10.4l34.6 19.8v-10.2z"/><path class="st4" d="M206.1 217.1v11.2l-34.7 19v-10.2z"/><path class="st3" d="M134.3 213.2v11.1l37.1 21.1v-10.8z"/><path class="st2" d="M171.4 245.4l37.2-20.2v-12l-37.2 21.4z"/><path class="st0" d="M307 370l-110.7-63.8c-2-1.1-2.6-3.6-1.5-5.6.4-.7 1-1.2 1.7-1.6l13.9-7.2c1.2-.6 2.7-.6 3.9.1l114.4 65.9c2 1.1 2.6 3.6 1.5 5.6-.4.7-1 1.2-1.7 1.6l-10.1 5.2c-3.6 1.9-7.9 1.8-11.4-.2z"/><path class="st5" d="M313.8 358l-94.4-54.5c-8-4.6-14.5-17-14.5-27.6V12.7c0-10.7 6.5-15.6 14.5-10.9l94.4 54.5c8 4.6 14.5 17 14.5 27.7v263.2c0 10.5-6.5 15.4-14.5 10.8z"/><path class="st5" d="M315.4 362.7l7.5-3.7-7.2-12.3zM203.5 4.4l6.9-3.6-1.4 10.1z"/><path class="st6" d="M307.8 361l-94.4-54.5c-8-4.6-14.5-17-14.5-27.6V15.7c0-10.7 6.5-15.6 14.5-10.9l94.4 54.5c8 4.6 14.5 17 14.5 27.7v263.2c0 10.5-6.5 15.4-14.5 10.8z"/><path class="st7" d="M321.2 87.5v263.2c0 10.7-6.5 15.6-14.5 11l-37-21.4-11.5-6.6-45.8-26.5c-8-4.6-14.5-17-14.5-27.6V16.4c0-10.7 6.5-15.6 14.5-11l94.4 54.5c8 4.6 14.4 17 14.4 27.6z"/><path d="M314.4 84.9v256.3c0 6.5-4.5 9.1-10.1 5.8l-5-2.9-17.1-9.9-7.4-4.3-2.6-1.5-.9-.5-6.4-3.6-18.4-10.6-7.6-4.4-3.1-1.8-18.4-10.6-2.5-1.5c-5.6-3.2-10.1-11.1-10.1-17.5V21.5c0-6.5 4.5-9.1 10.1-5.9L251.7 37v.1c.3 5.5 3.2 10.6 7.9 13.7 4.4 2.5 7.9.5 7.9-4.5v-.1l36.9 21.3c5.5 3.1 10 10.9 10 17.4z" fill="#fff"/><ellipse transform="rotate(-29.888 260.62147455 44.59112205)" class="st9" cx="260.6" cy="44.6" rx="2.4" ry="4.2"/><path class="st10" d="M259.6 45.8c-.7-.5-1.2-1.3-1.2-2.2 0-.8.6-1.1 1.2-.7.7.5 1.2 1.3 1.3 2.2 0 .8-.6 1.1-1.3.7z"/><path class="st11" d="M325.1 122.2c-.8.4-1.4 0-1.4-1v-11.3c0-1.1.5-2 1.4-2.7.8-.4 1.4 0 1.4 1.1v11.2c0 1.1-.6 2.1-1.4 2.7zM325.1 140.6c-.8.4-1.4 0-1.4-1.1v-11.2c0-1.1.5-2 1.4-2.7.8-.4 1.4 0 1.4 1.1v11.2c0 1.1-.6 2-1.4 2.7z"/><path class="st12" d="M293.8 172.5l-71-41c-3-1.7-5.5-6.4-5.5-10.4v-80c0-4 2.4-5.9 5.5-4.1l71 41c3 1.7 5.5 6.4 5.5 10.4v80c0 4-2.4 5.8-5.5 4.1zM293.8 279.6l-71-41c-3-1.7-5.5-6.4-5.5-10.4v-80c0-4 2.4-5.9 5.5-4.1l71 41c3 1.7 5.5 6.4 5.5 10.4v80c0 4-2.4 5.8-5.5 4.1zM299.3 302.5v41.7L274.8 330l-2.6-1.5-.9-.5-6.4-3.6-18.4-10.6-7.6-4.4-3.1-1.8-18.4-10.6v-41.7c0-4 2.4-5.9 5.5-4.1l71 41c3 1.6 5.4 6.2 5.4 10.3z"/><path class="st4" d="M305.4 98.9L216.8 48V16.6l88.6 50.8z"/><path class="st13" d="M198.5 45.3L187.6 39l29.5-22 10.9 6.2z"/><path class="st14" d="M209.4 51.6l-10.9-6.3L228 23.2l10.9 6.4z"/><path class="st13" d="M220.4 57.9l-11-6.3 29.5-22 10.9 6.3z"/><path class="st15" d="M254.2 295.8c-.6.2-1.2.4-1.9.5 0 0-.4-.9-.6-2.4-.5-3.2-.4-8.9 6.3-12.5.4-.2.8-.4 1.3-.6.9-.4 1.9.1 2.1 1 .1.4.2.9.2 1.4.4 3.9 0 10.2-7.4 12.6z"/><path class="st16" d="M251.6 293.9c-.5-3.2-.4-8.9 6.3-12.5v.3c.5 3.7.2 9.6-6.3 12.2z"/><path class="st15" d="M248 299.1c-.2 0-.5-.1-.7-.3l-7.7-10.7c-.3-.4-.2-.9.2-1.1.4-.3.9-.2 1.1.2l7.7 10.7c.3.4.2.9-.2 1.1-.1 0-.3.1-.4.1zM244.7 301.7c-5.4 9.1-13.3 5.8-16.6 3.8-.8-.5-1-1.6-.3-2.3.5-.6 1.1-1.1 1.6-1.5 6.6-5.4 12.8-1.8 14.7-.4.4.2.6.4.6.4z"/><path class="st16" d="M244.1 301.2c-5.1 5.2-11.5 2.5-14.3.8-.2-.1-.3-.2-.4-.3 6.6-5.5 12.9-1.8 14.7-.5z"/><path class="st17" d="M248.7 299.6c-8.8 5.9-14.5-.5-16.6-3.7-.5-.8-.2-1.9.7-2.2.7-.3 1.3-.5 1.9-.6 7.3-1.9 11.4 2.4 13 4.9.7.9 1 1.6 1 1.6z"/><path class="st18" d="M247.8 298c-6.6 2.5-11-2-13-4.9 7.3-1.9 11.3 2.4 13 4.9z"/><path class="st17" d="M249.1 299.4c8.4-6.4 4.1-13.9 1.8-16.9-.6-.7-1.7-.8-2.3-.1-.5.5-.9 1.1-1.2 1.6-4.2 6.3-1.4 11.5.4 13.9.7 1 1.3 1.5 1.3 1.5z"/><path class="st18" d="M247.8 298c4.5-5.4 1.6-11.1-.4-13.9-4.2 6.3-1.4 11.5.4 13.9z"/><path d="M273.9 328.7c-.1.3-.3.6-.4.9-1.4 2.6-4.2 4.2-7.2 4-11.6-.9-22-8.3-22-8.3-8.3-5.5-9.4-17.5-2-22.8l.3-.2 5.4-3.9 5.7-4c7.4-5.3 18.5-.4 21 9.2 2.9 11.3 1.1 20-.8 25.1z" fill="#c70024"/><path d="M273.9 328.7c-.1.3-.3.6-.4.9-1.2.6-2.6 1-4.1.8-11.6-.9-22-8.3-22-8.3-7-4.7-8.9-13.9-4.8-19.9l5.4-3.9 5.7-4c7.4-5.3 18.5-.4 21 9.2 2.9 11.4 1.1 20.1-.8 25.2z" fill="#ff0c38"/><ellipse transform="rotate(-35.59 244.31539766 315.16669465)" cx="244.3" cy="315.2" rx="1" ry="1.7"/><ellipse transform="rotate(-35.59 247.82899058 306.34597155)" cx="247.8" cy="306.4" rx="1" ry="1.7"/><ellipse transform="rotate(-35.59 256.46484369 312.01156839)" cx="256.5" cy="312" rx="1" ry="1.7"/><ellipse transform="rotate(-35.59 268.76956371 298.90799743)" cx="268.8" cy="298.9" rx="1" ry="1.7"/><ellipse transform="rotate(-35.59 266.1655251 309.58920978)" cx="266.2" cy="309.6" rx="1" ry="1.7"/><ellipse transform="rotate(-35.59 271.57425783 318.5984044)" cx="271.6" cy="318.6" rx="1" ry="1.7"/><ellipse transform="rotate(-35.59 259.7260184 323.4050176)" cx="259.7" cy="323.4" rx="1" ry="1.7"/><ellipse transform="rotate(-35.59 268.04765174 327.8611707)" cx="268" cy="327.9" rx="1" ry="1.7"/><ellipse transform="rotate(-35.59 258.48241553 300.2737375)" cx="258.5" cy="300.3" rx="1" ry="1.7"/><ellipse transform="rotate(-35.59 248.78790275 323.498076)" cx="248.8" cy="323.5" rx="1" ry="1.7"/><path class="st14" d="M231.3 64.2l-10.9-6.3 29.4-22 11 6.3z"/><path class="st13" d="M242.2 70.5l-10.9-6.3 29.5-22 10.9 6.3z"/><path class="st14" d="M253.1 76.8l-10.9-6.3 29.5-22 10.9 6.3z"/><path class="st13" d="M264 83.2l-10.9-6.4 29.5-22 10.9 6.3z"/><path class="st14" d="M275 89.4l-11-6.2 29.5-22.1 10.9 6.3z"/><path class="st13" d="M193.1 48.4c3 1.7 5.5.3 5.5-3.2l-10.9-6.3c.2 3.9 2.2 7.4 5.4 9.5z"/><path class="st14" d="M204.1 54.7c3 1.8 5.5.3 5.5-3.2l-10.9-6.3c.1 3.9 2.1 7.4 5.4 9.5z"/><path class="st13" d="M215 61c3 1.7 5.5.3 5.5-3.2l-10.9-6.3c.1 3.9 2.2 7.4 5.4 9.5z"/><path class="st14" d="M225.9 67.3c3 1.7 5.5.3 5.5-3.2l-10.9-6.3c.1 3.9 2.2 7.4 5.4 9.5z"/><path class="st13" d="M236.8 73.6c3 1.7 5.5.3 5.5-3.2l-10.9-6.3c.2 3.9 2.2 7.4 5.4 9.5z"/><path class="st14" d="M247.7 79.9c3 1.7 5.5.3 5.5-3.2l-10.9-6.3c.2 3.9 2.2 7.4 5.4 9.5z"/><path class="st13" d="M258.6 86.2c3 1.7 5.5.3 5.5-3.2l-10.9-6.3c.2 3.9 2.2 7.4 5.4 9.5z"/><path class="st14" d="M269.6 92.5c3 1.7 5.5.3 5.5-3.2L264.2 83c.1 3.9 2.1 7.4 5.4 9.5z"/><g opacity=".15"><path d="M193.1 48.4c3 1.7 5.5.3 5.5-3.2l-10.9-6.3c.2 3.9 2.2 7.4 5.4 9.5zM204.1 54.7c3 1.8 5.5.3 5.5-3.2l-10.9-6.3c.1 3.9 2.1 7.4 5.4 9.5zM215 61c3 1.7 5.5.3 5.5-3.2l-10.9-6.3c.1 3.9 2.2 7.4 5.4 9.5zM225.9 67.3c3 1.7 5.5.3 5.5-3.2l-10.9-6.3c.1 3.9 2.2 7.4 5.4 9.5zM236.8 73.6c3 1.7 5.5.3 5.5-3.2l-10.9-6.3c.2 3.9 2.2 7.4 5.4 9.5z"/><path d="M247.7 79.9c3 1.7 5.5.3 5.5-3.2l-10.9-6.3c.2 3.9 2.2 7.4 5.4 9.5zM258.6 86.2c3 1.7 5.5.3 5.5-3.2l-10.9-6.3c.2 3.9 2.2 7.4 5.4 9.5zM269.6 92.5c3 1.7 5.5.3 5.5-3.2L264.2 83c.1 3.9 2.1 7.4 5.4 9.5z"/></g><path class="st0" d="M380.8 394.5l-39.5-22.8 4.9-2.9 39.5 22.8z"/><path class="st22" d="M396 385.9L356.4 363l5-45.2 29.7 17.2z"/><path class="st23" d="M385.7 391.6l-39.6-22.9 4.9-45.2 29.8 17.2z"/><path class="st24" d="M385.7 391.6l10.3-5.7-4.9-50.9-10.3 5.7z"/><path class="st22" d="M351 323.5l10.4-5.7-1.3 11z"/><path class="st25" d="M373.3 336.3l-1.8-1.1c0-4.3-2.5-9.2-5.6-11s-5.6.2-5.6 4.5l-1.8-1.1c0-5.4 3.3-7.9 7.4-5.6s7.4 8.9 7.4 14.3zM383 330.4l-1.8-1.1c0-4.3-2.5-9.2-5.6-11s-5.6.2-5.6 4.5l-1.8-1.1c0-5.4 3.3-7.9 7.4-5.6s7.4 8.9 7.4 14.3z"/><path class="st0" d="M345.3 423.4l-56.9-32.8 7.1-4.1 56.9 32.8z"/><path class="st22" d="M367.2 411l-57.1-32.9 7.2-65.2 42.8 24.8z"/><path class="st23" d="M352.4 419.3l-57.1-33 7.1-65.1 42.9 24.7z"/><path class="st24" d="M352.4 419.3l14.8-8.3-7.1-73.3-14.8 8.2z"/><path class="st22" d="M302.4 321.2l14.9-8.3-1.8 15.8z"/><path class="st25" d="M334.5 339.6l-2.6-1.6c0-6.1-3.6-13.2-8.1-15.8s-8.1.3-8.1 6.5l-2.6-1.5c0-7.8 4.8-11.4 10.7-8s10.7 12.5 10.7 20.4zM348.5 331.1l-2.6-1.5c0-6.1-3.6-13.2-8.1-15.8s-8.1.4-8.1 6.5l-2.6-1.5c0-7.8 4.8-11.4 10.7-8s10.7 12.4 10.7 20.3z"/><path class="st0" d="M109.5 280.6l-21.4-12.3 24-13.8 21.4 12.3z"/><path class="st1" d="M112.9 252.4L90 239.2l22.9-13.3 23 13.3z"/><path class="st2" d="M134.3 266.2l-21.4 12.4v-24.7l21.4-12.3z"/><path class="st3" d="M112.9 278.6l-21.3-12.4v-24.6l21.3 12.3z"/><path class="st4" d="M91.6 241.6v6.4l21.3 12.2v-6.3zM134.3 241.6v6.9l-21.4 11.7v-6.3z"/><path class="st3" d="M90 239.2v6.8l22.9 13.1v-6.7z"/><path class="st2" d="M112.9 259.1l23-12.5v-7.4l-23 13.2z"/><path class="st0" d="M389.2 422.3L370 411.2l21.7-12.5 19.3 11.1z"/><path class="st1" d="M392.4 396.9l-20.7-12 20.7-11.9 20.7 11.9z"/><path class="st2" d="M411.7 409.3l-19.3 11.2v-22.3l19.3-11.2z"/><path class="st3" d="M392.4 420.5l-19.3-11.2V387l19.3 11.2z"/><path class="st4" d="M373.1 387v5.9l19.3 11v-5.7z"/><path class="st4" d="M411.7 387v6.3l-19.3 10.6v-5.7z"/><path class="st3" d="M371.7 384.9v6.2l20.7 11.8v-6z"/><path class="st2" d="M392.4 402.9l20.7-11.3v-6.7l-20.7 12z"/><path class="st0" d="M161.4 313.5l-41.1-23.7 5.1-3 41.1 23.7z"/><path class="st22" d="M177.2 304.6L136 280.8l5.1-47.1 31 17.9z"/><path class="st23" d="M166.5 310.5l-41.2-23.8 5.1-47 31 17.8z"/><path class="st24" d="M166.5 310.5l10.7-5.9-5.1-53-10.7 5.9z"/><path class="st22" d="M130.4 239.7l10.7-6-1.2 11.4z"/><path class="st25" d="M153.6 253l-1.9-1.1c0-4.4-2.6-9.6-5.8-11.4s-5.8.2-5.8 4.7l-1.9-1.1c0-5.6 3.5-8.2 7.7-5.8s7.7 9 7.7 14.7zM163.7 246.8l-1.9-1.1c0-4.4-2.6-9.6-5.8-11.4s-5.8.2-5.8 4.7l-1.9-1.1c0-5.6 3.5-8.2 7.7-5.8s7.7 9 7.7 14.7z"/><g id="Men_2"><ellipse class="st0" cx="43.6" cy="474.8" rx="43.6" ry="25.2"/><path id="_Контур_" class="st26" d="M11.6 286.3c-.5 4.2-5.5 22.5-4.5 28.8s18.4 16.7 18.4 16.7l2.4-10.7-9.6-9.4 2.6-17.7-9.3-7.7z"/><path id="_Контур_2" class="st27" d="M25 268.3c-3.5-1.6-7.6-.4-9.6 2.9-2.5 4.2-5.2 18.6-5.4 21.1 0 0 3.6 4.9 8.9 4.1l6.1-28.1z"/><path class="st28" d="M44.7 472.1c3.8 1 7.8.6 11.2-1.4 2.7.1 17.3-6.2 19.3-.9 1.7 4.6-4.6 8.9-8 9.7-7.4 1.8-12.8 5.5-15.8 6.1-2.2.5-5.1.8-6.8-1-2.1-2.1-2-9.8.1-12.5z"/><path class="st29" d="M51.4 484.3c3-.6 8.4-4.3 15.8-6.1 2.8-.7 7.7-3.8 8.2-7.5.7 4.2-5 8-8.2 8.8-7.4 1.8-12.8 5.5-15.8 6.1-2.2.5-5.1.8-6.8-1-.5-.5-.8-1.1-1-1.8 2.6 2.2 5.6 2 7.8 1.5z"/><path class="st28" d="M21 461.4c3.8 1 7.8.6 11.2-1.4 2.7.1 17.3-6.2 19.3-.9 1.7 4.6-4.6 8.9-8 9.7-7.4 1.8-12.8 5.5-15.8 6.1-2.2.5-5.1.8-6.8-1-2.1-2-2-9.7.1-12.5z"/><path class="st29" d="M27.7 473.6c3-.6 8.4-4.3 15.8-6.1 2.8-.7 7.7-3.8 8.2-7.5.7 4.2-5 8-8.2 8.8-7.4 1.8-12.8 5.5-15.8 6.1-2.2.5-5.1.8-6.8-1-.5-.5-.8-1.1-1-1.8 2.6 2.2 5.6 2 7.8 1.5z"/><path id="_Контур_3" class="st25" d="M20.7 421.7c.6-5.4 1.8-10.8 3.4-16 0 0-1-13.8-1.5-26.9-.6-14.8-5.7-28-1.7-39.8l45.8 10.2s-2.8 59.3-3.4 66.4c-.3 5.6-1 11.1-2 16.6-2.1 11.5-5.5 38.9-5.5 38.9-4.8 2.8-11.2 1.2-11.2 1.2s.3-34.6.7-42.9c.4-10.1.7-9.4.7-9.4l-1.5-25-1-12.5s-1.3 9.2-2.1 17.4c-.7 7.2-2.5 13.6-4.4 27-1.7 11.6-4.4 34.8-4.4 34.8-4.9 2.8-11.4.5-11.4.5s-1.8-30.4-.5-40.5z"/><path id="_Контур_4" class="st26" d="M27.4 268.5c3.5.2 6.1 1.1 6.5 0 .4-1.8.6-3.6.8-5.5-.4-1-.8-2.1-.8-2.1-4.4-2.7-5.8-7.4-6.4-13-1-9.4 4.1-17.7 13.6-18.7 8.9-.9 15.4 5.3 17.1 13.9.9 4.2 2.8 12.2.3 19.2-1.4 3.9-3.2 7-5 7.6-1.8 0-3.5-.2-5.2-.5 0 0-.5 2.6-.8 4.3s-.2 2.6 3.2 4.6-5.1 6.3-10.6 5.9-11.7-3.7-13.4-7.3c-1.8-3.8-1.7-8.5.7-8.4z"/><path id="_Контур_5" d="M32.5 269c-1 2.4 1.5 5.4 8 7.4s7.2-.6 7.2-.6 9.6 4.4 12.8 6.6c3.9 2.8 5.7 10.7 6.2 24.1.6 15.6.7 38.6.2 42.6 0 0-7.4 7.3-16.8 6.6s-25.2-9.1-29.1-15.5c.1-13.6 1.7-15.9-.5-23.7-5.1-18-7.7-25.4-5.3-37.3 2-9.9 4.9-11.1 8.8-11 2.7.1 5.6.4 8.5.8z" fill="#f4f4f4"/><path id="_Контур_6" class="st26" d="M81.4 319.5c-7.7 1.9-9.5-2.9-10.6-7-2.5-9.8-3.8-18.6-5.6-24.1-2.2-6.5-4.4-7.6-7.6-8.9-3.7-1.5-6.9 1.6-5.7 10 1.5 9.9 3.4 16.8 7.1 28.4 1 3 3.1 8.5 6.4 11.1 4 3.2 10 3.1 19.1.8 3.9-1 8.1-3.3 15.4-6.7 2-.9 3.5-1.5 7.3-3.3s7.7-4.7 9.7-7.6 1.6-4.7 1.2-5.3c-.5-.8-.8-.2-1.8 1-1.5 2-3.4 3.8-5.6 5.1 0 0 2.4-2.5 3.8-4.2 1.2-1.5 2.2-3.1 2.9-4.8.7-1.7-.7-3.9-1.8-2.8s-1.6 2.4-3.6 4.8c-1.1 1.3-2.3 2.4-3.6 3.4 1.2-1.7 2.3-3.4 3.3-5.3 1.3-2.6-3-1.2-5.4 1.3-1.8 1.8-3.3 2.9-3.3 2.4s-3.5 3.2-5.2 5c-2 2.2-9 4.8-16.4 6.7z"/><path id="_Контур_7" class="st27" d="M54.8 278.2c5.2-.8 8.8 1.6 11.1 9.4 2.3 7.8 3.9 14.2 3.9 14.2-2 3-5.1 5-8.7 5.7-6.2 1.5-8.4-1.5-8.4-1.5s-1.7-8.2-2.8-13.8-1.5-13.1 4.9-14z"/><path class="st7" d="M58 242s8.2-12.4-9.5-14.9c-12.7-1.8-20.9 6.4-21.9 15.2-.9 8.5 4.3 17.3 8.1 20.8 1.8.7 5.8 1 11-1.3.2-2.3.3-4.6.2-6.9.1-.1-6.1-13.1 12.1-12.9z"/></g><path class="st26" d="M99.4 309.7s-2-3.6-.7-4.6 3.1 2.5 3.5 3.9-.1-.4-.1-.4-1.4-4.1-.5-4.9 2.1 1 3.3 3.6.3-.2.3-.2-2-4.1-1.1-4.7c1.1-.8 3 1.7 4.1 3.9s-1.5 4.8-1.5 4.8l-7.3-1.4z"/><g id="Mobile"><path class="st5" d="M103.3 316.2l-7.5-4.3c-.6-.4-.6-1 .2-1.4l18-10.5c.8-.4 1.7-.5 2.5-.1l7.5 4.3c.6.4.6 1-.2 1.4L105.7 316c-.8.6-1.7.6-2.4.2z"/><path class="st5" d="M95.3 311.3v-.7l.9.3zM124.4 304.9v-.7l-.6.4z"/><path class="st6" d="M103.3 315.7l-7.5-4.3c-.6-.4-.6-1 .2-1.4l18-10.4c.8-.4 1.7-.5 2.5-.1l7.5 4.3c.6.4.6 1-.2 1.4l-18.1 10.4c-.8.4-1.7.4-2.4.1z"/><circle transform="rotate(-29.888 96.97644244 313.34089272)" class="st11" cx="97" cy="313.4" r=".1"/><circle transform="rotate(-30 96.94746899 312.31392169)" class="st11" cx="97" cy="312.3" r=".1"/><circle transform="rotate(-30 97.30424846 312.52593859)" class="st11" cx="97.3" cy="312.5" r=".1"/><circle transform="rotate(-30 97.67087134 312.73779352)" class="st11" cx="97.7" cy="312.7" r=".1"/><circle transform="rotate(-30 100.76184299 314.52297392)" class="st11" cx="100.8" cy="314.5" r=".1"/><circle transform="rotate(-30 101.11356865 314.7262364)" class="st11" cx="101.1" cy="314.7" r=".1"/><circle transform="rotate(-30 101.48037812 314.93814134)" class="st11" cx="101.5" cy="314.9" r=".1"/><circle transform="rotate(-29.888 102.24860984 316.39186255)" class="st11" cx="102.3" cy="316.4" r=".1"/><path class="st11" d="M99.7 314.1l-1-.6c-.1-.1-.1-.1-.1-.2s.1-.1.1-.1l1 .6c.1 0 .1.1.1.2s0 .1-.1.1zM122.2 306.5l-.9.5c-.1 0-.1 0-.1-.1s0-.2.1-.2l.9-.5c.1 0 .1 0 .1.1s-.1.2-.1.2zM120.8 307.3l-.9.5c-.1 0-.1 0-.1-.1s0-.2.1-.2l.9-.5c.1 0 .1 0 .1.1s-.1.2-.1.2z"/><path class="st25" d="M103.3 315.6l-7.5-4.3c-.6-.4-.6-1 .2-1.4l18-10.5c.8-.4 1.7-.5 2.5-.1l7.5 4.3c.6.4.6 1-.2 1.4l-18.1 10.4c-.8.5-1.7.5-2.4.2z"/><path class="st9" d="M123.2 303.8l-2.9-1.7c-.4.2-.9.2-1.2 0-.2-.1-.3-.3-.2-.5 0-.1.1-.2.2-.2l-2.9-1.7c-.5-.3-1.1-.3-1.6 0L97 309.9c-.3.1-.4.4-.3.6 0 .1.2.3.3.3l7.1 4.1c.5.3 1.1.3 1.6 0l17.6-10.2c.3-.1.4-.3.3-.6-.1-.2-.3-.3-.4-.3z"/><linearGradient id="SVGID_1_" gradientUnits="userSpaceOnUse" x1="-2038.9501" y1="-2497.531" x2="-2038.9501" y2="-2478.311" gradientTransform="matrix(.87 .5 1 -.58 4360.23 -109.53)"><stop offset=".21" stop-color="#fff" stop-opacity="0"/><stop offset="1" stop-color="#fff" stop-opacity=".2"/></linearGradient><path d="M123.2 303.8l-2.9-1.7c-.4.2-.9.2-1.2 0-.2-.1-.3-.3-.2-.5 0-.1.1-.2.2-.2l-2.9-1.7c-.5-.3-1.1-.3-1.6 0L97 309.9c-.3.1-.4.4-.3.6 0 .1.2.3.3.3l7.1 4.1c.5.3 1.1.3 1.6 0l17.6-10.2c.3-.1.4-.3.3-.6-.1-.2-.3-.3-.4-.3z" opacity=".5" fill="url(#SVGID_1_)"/><ellipse class="st9" cx="119.4" cy="301.8" rx=".3" ry=".2"/><path class="st10" d="M119.3 301.9c-.1 0-.1-.1 0-.1h.2v.1h-.2z"/></g><path class="st26" d="M114.9 314.5s4-3.6 3.8-8.3c-.2-3.3-2.2-.9-2.2-.9l-2 3.6s-2 2.6-3.8 3.2c-1.4.1-2.8.3-4.2.6-2.5.5-4.9 3.5-4.9 3.5l3.2 2.4 10.1-4.1z"/><path class="st32" d="M424.7 138.6L401.2 125c-.8-.5-1.7-.7-2.6-.4-.2.1-.4.2-.5.3l-4.3 2.5 3 4.2v22.3c0 3.3 2 7.1 4.5 8.5l20.7 12 .7 4.7c.1-.1 3.7-2.1 4.8-2.8.1-.1.2-.1.3-.2 1-.9 1.5-2.2 1.4-3.5V147c-.1-3.2-2.1-7-4.5-8.4z"/><path class="st33" d="M419.8 178.8l-23.5-13.6c-2.5-1.4-4.5-5.2-4.5-8.5v-25.6c0-3.3 2-4.8 4.5-3.4l23.5 13.6c2.5 1.4 4.5 5.2 4.5 8.5v25.5c0 3.4-2 4.9-4.5 3.5z"/><path class="st13" d="M398.8 140.8c0-1.4.4-2.4 1.2-2.8s1.9-.3 3.2.5c1.3.8 2.4 1.9 3.2 3.2.8 1.3 1.2 2.8 1.2 4.3v1.2c0 1.4-.4 2.4-1.2 2.8s-1.9.2-3.2-.5c-1.3-.8-2.4-1.9-3.2-3.2-.8-1.3-1.2-2.8-1.2-4.3v-1.2zm2.7 2.7c0 .6.2 1.3.5 1.8.3.6.7 1 1.3 1.3.5.3.9.3 1.2.1.4-.3.5-.8.5-1.3v-1.2c0-.6-.2-1.3-.5-1.8-.3-.6-.7-1-1.3-1.3-.3-.3-.8-.3-1.2-.1-.3.2-.5.7-.5 1.4v1.1zM404 161l-2-2.4 10-12.6 2 2.4-10 12.6zm4.5-1.4c0-1.4.4-2.4 1.2-2.8s1.9-.2 3.2.5c1.3.8 2.4 1.9 3.2 3.2.8 1.3 1.2 2.8 1.2 4.3v1.2c0 1.4-.4 2.4-1.2 2.8s-1.9.2-3.2-.5c-1.3-.8-2.4-1.9-3.2-3.2-.8-1.3-1.2-2.7-1.2-4.2v-1.3zm2.7 2.8c0 .6.2 1.3.5 1.8.3.6.7 1 1.3 1.4 1.1.7 1.7.3 1.7-1.2v-1.2c0-.6-.2-1.3-.5-1.8s-.7-1-1.3-1.3c-.4-.3-.8-.3-1.2-.1-.4.3-.6.8-.5 1.3v1.1z"/><path class="st32" d="M124.1 67.3l-23.5-13.6c-.8-.5-1.7-.7-2.6-.4-.2.1-.4.2-.5.3l-4.3 2.5 3 4.2v22.3c0 3.3 2 7.1 4.4 8.5l20.7 12 .7 4.7 4.8-2.8c.1-.1.2-.1.3-.2 1-.9 1.5-2.2 1.4-3.5V75.8c0-3.2-2-7-4.4-8.5z"/><path class="st33" d="M119.2 107.6L95.7 94c-2.5-1.4-4.5-5.2-4.5-8.5V59.9c0-3.3 2-4.8 4.5-3.4l23.5 13.6c2.5 1.4 4.4 5.2 4.4 8.5v25.5c.1 3.4-1.9 4.9-4.4 3.5z"/><path fill="#f9cb07" d="M107.5 70l3.1 9.3 7.2 5.3-5.2 2.8 1.2 8.9-6.3-7.5-6.4.1 1.2-7.4-5.2-8.8 7.2 2.9z"/></g></g><path class="st35" d="M271.2 189.5l-2.4 4.5v.1l1.1.5-4.7 8.3.9.8 10.1-11-5-3.2z"/><path d="M272.2 190.1l-1-.6-2.4 4.5v.1l1.1.5 2.3-4.5z" fill="#74a534"/><path d="M267.8 203.9l-1.1.4 9.1-6.5 3.8-1.8 1 3.3-12.8 4.6z" fill="#a6d63c"/><path d="M279.6 196l-3.8 1.8-9.1 6.5 3.7-1.3 9.5-6.1-.3-.9z" fill="#7eb239"/><path class="st35" d="M264.6 201.9l.4-1.2 2.5-7.4-.8-.4-2.6 7.1-.4 1.1c.1.8 1 2 1.9 2.6-.6-.5-.9-1.2-1-1.8z"/><path d="M256.4 199.6c.6-.1 1.2-.2 1.8-.2.6 0 1.1 0 1.7.1.5.1 1.1.3 1.5.5-.6.9.2 2.8 1.8 4.5 1.7 1.7 3.6 2.4 4.5 1.8.2.5.4 1 .5 1.6.3 2.1.3 5.5-2.5 7.5-.2.1-.3.2-.5.3l-17.9 10.8-10.3 6.2c-1.2.7-2.6-.7-1.9-1.9l4.3-7.1 12.8-21.2c1-1.7 2.6-2.5 4.2-2.9z" fill="#ff9c31"/><path d="M247.4 226.5l.6-1.2 11.2-22c.4-.9 1.1-1.8 2-2.4 0-.3 0-.6.2-.8-.5-.2-1-.4-1.5-.5-.6-.1-1.1-.1-1.7-.1-.6 0-1.2.1-1.8.2-1.6.3-3.2 1.2-4.3 3l-12.8 21.2-4.3 7.1c-.7 1.2.7 2.6 1.9 1.9l10.3-6.2.2-.2z" fill="#ed8115"/><path d="M267.8 206.4c-.9.6-2.8-.2-4.5-1.8-1.7-1.7-2.4-3.6-1.8-4.5l.1-.1c.5-.5 1.4-.4 2.5.2l-.4 1.1c.1 1.2 1.8 3 3 3l1.1-.4c.5 1 .6 1.9.1 2.4l-.1.1z" fill="#ffb743"/><path id="XMLID_12_" class="st42" d="M265.9 214.9c-2.4-.6-4.1-1.8-5.5-3.8-.2-.3-.5-.3-.8-.1-.3.2-.3.5-.1.8 1.4 2.1 3.2 3.4 5.6 4.1l.1-.1c.2-.1.4-.2.5-.3.2-.1.3-.2.4-.3 0-.2-.1-.3-.2-.3z"/><path id="XMLID_14_" class="st42" d="M257.6 205.7c.1.1.2.2.4.2.1 0 .3-.1.4-.2.2-.2.2-.6 0-.8-1.3-1.3-1.9-3.5-1.4-5.1v-.3c-.2 0-.4.1-.6.1-.2 0-.4.1-.6.1-.5 2.1.2 4.6 1.8 6z"/><path id="XMLID_16_" class="st42" d="M240.2 226.5c.1.1.2.1.4.1s.3-.1.4-.2c.2-.2.2-.6-.1-.8-.7-.5-1-1.1-1-1.9 0-.2-.1-.4-.3-.5l-.3.5-.5.8c.2.8.7 1.5 1.4 2z"/><path id="XMLID_18_" class="st42" d="M247.3 226c-.8 0-1.7-.7-2.1-1.2-.2-.2-.6-.3-.8-.1-.2.2-.3.6-.1.8.5.6 1.3 1.3 2.2 1.5l.7-.4.5-.3c0-.2-.2-.3-.4-.3z"/><path id="XMLID_19_" class="st42" d="M253.4 214.3c-1.3-1.1-2.2-2.4-2.8-4-.1-.3-.4-.4-.7-.3-.3.1-.4.4-.3.7.6 1.7 1.7 3.3 3.1 4.5.1.1.2.1.4.1s.3-.1.4-.2c.2-.2.2-.6-.1-.8z"/><path d="M274.2 194.5l-.6-.6-8.4 9 4.7-8.3-1.1-.5-2.1-1-3 8.3c.1 1.2 1.8 3 3 3l9.1-6.5 1-.7-2.6-2.7z" fill="#619329"/><g><path d="M250.8 101.6c-1.2-.6-2.4-2.1-2.7-2.6.6.1 1.9.6 2.6.6 2.4 0 4.1-2.4 8.3-.9l-1.5-6.5c-.1-.6.2-1.2.8-1.3.6-.1 1.2.2 1.3.8l1.4 5.7c2.9-1 4.9 1 7 1.6 2.3.6 4.5-.3 4.6-.3 0 .1-1.4 2-3.2 2.9-.1.1-.3.1-.4.2-1.3.5-2.8.7-4.2.5 2.3 1.3 3.5 4 2.9 6.7-.5-.5-1.3-1.5-2.1-1.9-.9-.4-3.2-.7-4.9-3.2-.6 0-.8 3-3.4 3.6-.7.1-2.9 0-3.3.4.3-3 2.9-3.7 2-6-.7.1-2.9.8-5.2-.3z" fill="#97c447"/><path class="st45" d="M266.6 104c-.2 0-.4 0-.6-.1.4.2.7.5 1 .7-.1-.1-.3-.3-.4-.6zM252 101.3c2.4 0 4.1-2.4 8.3-.9l-1.5-6.5c-.1-.6.2-1.2.8-1.3h.2l-.2-.9c-.1-.6-.7-.9-1.3-.8-.6.1-.9.7-.8 1.3l1.5 6.5c-4.2-1.5-5.9.9-8.3.9-.7 0-1.9-.6-2.6-.6.4.6 1 1.2 1.5 1.7.7.1 1.7.6 2.4.6z"/><path d="M268.9 101.8c5.8 2.9 9.7 8.5 9.7 15 0 9.5-8.5 17.2-19 17.2s-19-7.7-19-17.2c0-6.6 4.1-12.3 10.2-15.2 2.3 1.1 4.5.4 5 .2.9 2.3-1.7 3-2 6 .4-.4 2.7-.3 3.3-.4 2.6-.6 2.8-3.5 3.4-3.6 1.7 2.5 4 2.8 4.9 3.2.7.3 1.5 1.4 2.1 1.9.6-2.6-.6-5.3-2.9-6.7 1.5.3 2.9.1 4.3-.4z" fill="#f43b3b"/><path d="M266.8 127.6c-10.5 0-19-7.7-19-17.2 0-3.1.9-6.1 2.6-8.7-5.9 2.9-9.8 8.6-9.8 15 0 9.5 8.5 17.2 19 17.2 7 0 13.1-3.4 16.4-8.4-2.8 1.4-6 2.1-9.2 2.1z" fill="#d61d1d"/><g class="st48"><path class="st49" d="M249.5 128.1c-.2 0-.3-.1-.4-.2-.7-.8-1.3-1.6-1.8-2.5-.2-.2-.1-.6.2-.7.2-.2.6-.1.7.2.5.8 1.1 1.6 1.7 2.3.2.2.2.6 0 .7-.2.1-.3.2-.4.2z"/></g><g class="st48"><path class="st49" d="M246.1 122.4c-.2 0-.4-.1-.5-.4-1.2-3.5-1.2-7.2 0-10.7.1-.3.4-.4.7-.3.3.1.4.4.3.7-1.1 3.2-1.2 6.7 0 10 .1.3-.1.6-.3.7h-.2z"/></g></g><path class="st7" d="M280.9 346.6l-60.2-34.8v-.1l5.6-9.7h.1l60.2 34.8v.1l-5.7 9.7c.1 0 .1.1 0 0z"/></svg>