<svg xmlns="http://www.w3.org/2000/svg" width="100" height="100"><g fill="rgba(255,255,255,0)"><path d="M93.52786255 99.50001526H6.47214127c-1.2218876 0-2.3348875-.6205368-2.9772749-1.659935-.64238763-1.03940582-.69967508-2.31243133-.15322494-3.40532684l43.5278616-87.05572605c.60573958-1.21148777 1.77602767-1.93475008 3.13050078-1.93475008 1.35447312 0 2.52474976.7232623 3.13048935 1.93473768l43.52786255 87.05574608c.54644776 1.09288788.4891739 2.36590576-.1532135 3.40531921-.64238739 1.0393982-1.75538635 1.659935-2.97727966 1.659935z"/><path d="M50.00000381 5.94426727c-1.16098785 0-2.16408157.61994934-2.68328094 1.65836335L3.78884125 94.65836334c-.46836853.93677521-.419281 2.02791596.13134765 2.9188385C4.4708023 98.46810914 5.4248047 99 6.47213745 99h87.05571747c1.04734802 0 2.0013504-.53189087 2.5519638-1.42281342.5506134-.89090728.59970856-1.98204803.13131714-2.91882324L52.68328476 7.60263062c-.51921463-1.038414-1.52230835-1.65836335-2.68328095-1.65836335m0-1c1.42033005 0 2.8406601.7370453 3.57770539 2.21115113l43.5278511 87.05573272C98.43537903 96.87075806 96.50138855 100 93.52785492 100H6.47213745c-2.97353363 0-4.90750885-3.12924194-3.57772064-5.78884888L46.42229843 7.1554184c.73704529-1.47410584 2.15737534-2.21115113 3.57770538-2.21115113z" fill="#707070"/></g></svg>